<svg width="24" height="25" viewBox="0 0 24 25" fill="none" xmlns="http://www.w3.org/2000/svg">
<path fill-rule="evenodd" clip-rule="evenodd" d="M4.5 3.29102C3.67157 3.29102 3 3.96259 3 4.79102V19.791C3 20.6194 3.67157 21.291 4.5 21.291H19.5C20.3284 21.291 21 20.6194 21 19.791V4.79102C21 3.96259 20.3284 3.29102 19.5 3.29102H4.5ZM8.52076 7.29374C8.52639 8.24999 7.81061 8.83921 6.96123 8.83499C6.16107 8.83077 5.46357 8.19374 5.46779 7.29515C5.47201 6.44999 6.13998 5.77077 7.00764 5.79046C7.88795 5.81015 8.52639 6.45562 8.52076 7.29374ZM12.2797 10.0528H9.75971H9.7583V18.6126H12.4217V18.4129C12.4217 18.033 12.4214 17.653 12.4211 17.2729C12.4203 16.2591 12.4194 15.2442 12.4246 14.2307C12.426 13.9846 12.4372 13.7287 12.5005 13.4938C12.7381 12.6163 13.5271 12.0496 14.4074 12.1889C14.9727 12.2774 15.3467 12.6051 15.5042 13.1381C15.6013 13.4713 15.6449 13.8299 15.6491 14.1773C15.6605 15.2249 15.6589 16.2725 15.6573 17.3202C15.6567 17.69 15.6561 18.06 15.6561 18.4298V18.6112H18.328V18.4059C18.328 17.9539 18.3278 17.502 18.3275 17.0501C18.327 15.9206 18.3264 14.7911 18.3294 13.6612C18.3308 13.1507 18.276 12.6473 18.1508 12.1537C17.9638 11.4196 17.5771 10.8121 16.9485 10.3734C16.5027 10.0612 16.0133 9.86012 15.4663 9.83762C15.404 9.83503 15.3412 9.83164 15.2781 9.82823C14.9984 9.81311 14.7141 9.79775 14.4467 9.85168C13.6817 10.005 13.0096 10.3551 12.5019 10.9724C12.4429 11.0432 12.3852 11.1151 12.2991 11.2224L12.2797 11.2467V10.0528ZM5.68164 18.6154H8.33242V10.0583H5.68164V18.6154Z" fill="white"/>
</svg>
